<?xml version="1.0" encoding="utf-8"?>
<!-- Generator: Adobe Illustrator 13.0.0, SVG Export Plug-In . SVG Version: 6.00 Build 14948)  -->
<!DOCTYPE svg PUBLIC "-//W3C//DTD SVG 1.1//EN" "http://www.w3.org/Graphics/SVG/1.1/DTD/svg11.dtd">
<svg version="1.1" id="Layer_1" xmlns="http://www.w3.org/2000/svg" xmlns:xlink="http://www.w3.org/1999/xlink" x="0px" y="0px"
	 width="841.891px" height="595.275px" viewBox="0 0 841.891 595.275" enable-background="new 0 0 841.891 595.275"
	 xml:space="preserve">
<g>
	<g>
		<g>
			<path fill="#A72535" d="M420.945,0c-109.41,0-198.426,89.016-198.426,198.426c0,32.845,8.212,65.41,23.822,94.295l163.753,296.16
				c2.18,3.948,6.334,6.395,10.851,6.395s8.671-2.446,10.851-6.395l163.813-296.258c15.551-28.787,23.763-61.354,23.763-94.199
				C619.371,89.016,530.355,0,420.945,0z M420.945,297.638c-54.705,0-99.212-44.507-99.212-99.212
				c0-54.705,44.507-99.212,99.212-99.212s99.212,44.507,99.212,99.212C520.157,253.13,475.65,297.638,420.945,297.638z"/>
		</g>
	</g>
</g>
</svg>
